# xmcd
#
# Track frame offsets: 
#        150
#        11207
#        15985
#        27122
#        38945
#        47502
#        77460
#        93177
#        102810
#        117907
#        120157
#        133987
#        149797
#        167487
#        182487
#        196670
#        209177
#        217652
#        234145
#        254962
#        264447
#        279067
#        301550
#        312132
#
# Disc length: 4399 seconds
#
# Revision: 0
# Processed by: cddbd v1.5.2PL0 Copyright (c) Steve Scherf et al.
# Submitted via: ExactAudioCopy v0.99pb4
#
DISCID=33112d18
DTITLE=Die Rhöner Säuwäntzt - Die Indianer aus dem Biosphärenreservat 
DTITLE=Blues von den Baumwollfeldern der Rhön
DYEAR=1997
DGENRE=Blues
TTITLE0=Ich senn en geile Rhöner Kuitz | Ich bin ein supergut aussehen
TTITLE0=der Rhönesischer Jungmann
TTITLE1=Beröm de Blues eichentlich immer noch uis de Rhön kommt (für d
TTITLE1=ee Lüüt boos immo noch net wissen) | Wieso der Blues eigentlic
TTITLE1=h d
TTITLE2=Bann de Määnsch in dee Nadur ihgrifft | Was man in Lütter mit 
TTITLE2=überzähligen Katzen macht
TTITLE3=Bos olles bassiert bann mo ällo werd | Was alles passiert wenn
TTITLE3=man älter wird
TTITLE4=Mo werd ällo, de Oarsch werd källo | Man wird älter, das Gesäß
TTITLE4=wird kälter
TTITLE5=Be dee Säuwänzt e mo in Wiesbode im Laanddoog Mussig gemoaicht
TTITLE5=hon | Als die Rhönesischen Schweinebäuche einmal im hessische
TTITLE5=n L
TTITLE6=Hee Mähe, brömm guggste mich so schlääd ohh | He Mädchen, waru
TTITLE6=m schaust du mich so verwundert an
TTITLE7=Bee ich e mo mäddem Schdoodschisso Renne gefoarrn bin | Als ic
TTITLE7=h einmal mit einem Angeber aus der Stadt auf der Bundesstraße 
TTITLE7=27 
TTITLE8=Audofoar'n, dos macht besoffe erscht so rechdich Schbass | Aut
TTITLE8=ofahren macht besoffen erst richtig Spaß
TTITLE9=Als es Baand gewärseld worn ess | Als bei der CD-Aufnahme ein 
TTITLE9=neues Band eingespannt werden mußte
TTITLE10=Übo der schönnsd Kuitz vo Lüddo | Über den schönsten Jungmann
TTITLE10=von Lütter
TTITLE11=Ess Lied vom Schrünnesch Christoph | Das Lied über den begehr
TTITLE11=testen Junggesellen von ganz Lütter
TTITLE12=Loss se schwatzz | Laß sie nur reden (über das Thema Problemv
TTITLE12=erarbeitung)
TTITLE13=Hossdelied | Das Hustenlied (ein altes Rhönesisches Gesundhei
TTITLE13=tslied)
TTITLE14=Eio vo glöcklicher Hünno | Eier von glücklichen Hühnern
TTITLE15=Be ich mo in Idalie woar | Als ich einmal in der Toskana Urla
TTITLE15=ub machte
TTITLE16=Bee moa beim Baue geschboar konn | Wie man kostengünstig ein 
TTITLE16=Eigenheim baut
TTITLE17=Mir honn gebaut, mir mosse schboar | Das Lied über ungewöhnli
TTITLE17=che Sparmaßnahmen beim Bauen
TTITLE18=So rechdich schö ess ebe nur in de Rhön | So richtig schön is
TTITLE18=t es nur in der Rhön, wo die Misthaufen noch qualmen (über di
TTITLE18=e Bes
TTITLE19=Ich honn nüscht gääche Pedesbäärch | Ich habe nichts gegen da
TTITLE19=s Dorf Petersberg bei Fulda
TTITLE20=Du hosst so schönne Auche bee e Kooh | Du hast so schöne Auge
TTITLE20=n wie eine Kuh
TTITLE21=Bann de Moond uff gett hängo de Wassokupp | Wenn der Mond auf
TTITLE21=geht hinter der Wasserkuppe (Spezialversion mit den original
TTITLE21=Rhön
TTITLE22=De Vorgrupp vom Carrersas Joseph | Als die Säuwänzt Vorgruppe
TTITLE22=bei José Carreras machen wollten
TTITLE23=Jo dos gitts nur in Fulda (eichentlich Foll uisgeschbroche) |
TTITLE23=Das gibt es nur in Fulda
EXTD=
EXTT0=
EXTT1=
EXTT2=
EXTT3=
EXTT4=
EXTT5=
EXTT6=
EXTT7=
EXTT8=
EXTT9=
EXTT10=
EXTT11=
EXTT12=
EXTT13=
EXTT14=
EXTT15=
EXTT16=
EXTT17=
EXTT18=
EXTT19=
EXTT20=
EXTT21=
EXTT22=
EXTT23=
PLAYORDER=
